%TF.GenerationSoftware,KiCad,Pcbnew,(6.0.11)*%
%TF.CreationDate,2023-07-03T01:03:28-07:00*%
%TF.ProjectId,sb-midi,73622d6d-6964-4692-9e6b-696361645f70,rev?*%
%TF.SameCoordinates,Original*%
%TF.FileFunction,Copper,L2,Bot*%
%TF.FilePolarity,Positive*%
%FSLAX46Y46*%
G04 Gerber Fmt 4.6, Leading zero omitted, Abs format (unit mm)*
G04 Created by KiCad (PCBNEW (6.0.11)) date 2023-07-03 01:03:28*
%MOMM*%
%LPD*%
G01*
G04 APERTURE LIST*
G04 Aperture macros list*
%AMRoundRect*
0 Rectangle with rounded corners*
0 $1 Rounding radius*
0 $2 $3 $4 $5 $6 $7 $8 $9 X,Y pos of 4 corners*
0 Add a 4 corners polygon primitive as box body*
4,1,4,$2,$3,$4,$5,$6,$7,$8,$9,$2,$3,0*
0 Add four circle primitives for the rounded corners*
1,1,$1+$1,$2,$3*
1,1,$1+$1,$4,$5*
1,1,$1+$1,$6,$7*
1,1,$1+$1,$8,$9*
0 Add four rect primitives between the rounded corners*
20,1,$1+$1,$2,$3,$4,$5,0*
20,1,$1+$1,$4,$5,$6,$7,0*
20,1,$1+$1,$6,$7,$8,$9,0*
20,1,$1+$1,$8,$9,$2,$3,0*%
G04 Aperture macros list end*
%TA.AperFunction,SMDPad,CuDef*%
%ADD10R,1.846667X3.480000*%
%TD*%
%TA.AperFunction,SMDPad,CuDef*%
%ADD11RoundRect,0.250000X-0.450000X0.350000X-0.450000X-0.350000X0.450000X-0.350000X0.450000X0.350000X0*%
%TD*%
%TA.AperFunction,SMDPad,CuDef*%
%ADD12RoundRect,0.150000X0.150000X-0.587500X0.150000X0.587500X-0.150000X0.587500X-0.150000X-0.587500X0*%
%TD*%
%TA.AperFunction,SMDPad,CuDef*%
%ADD13RoundRect,0.250000X0.450000X-0.350000X0.450000X0.350000X-0.450000X0.350000X-0.450000X-0.350000X0*%
%TD*%
%TA.AperFunction,ViaPad*%
%ADD14C,0.800000*%
%TD*%
%TA.AperFunction,Conductor*%
%ADD15C,0.250000*%
%TD*%
G04 APERTURE END LIST*
D10*
%TO.P,J1,9,P9*%
%TO.N,unconnected-(J1-Pad9)*%
X131500000Y-100330000D03*
%TO.P,J1,10,P10*%
%TO.N,unconnected-(J1-Pad10)*%
X128730000Y-100330000D03*
%TO.P,J1,11,P111*%
%TO.N,unconnected-(J1-Pad11)*%
X125960000Y-100330000D03*
%TO.P,J1,12,P12*%
%TO.N,/TX*%
X123190000Y-100330000D03*
%TO.P,J1,13,P13*%
%TO.N,unconnected-(J1-Pad13)*%
X120420000Y-100330000D03*
%TO.P,J1,14,P14*%
%TO.N,unconnected-(J1-Pad14)*%
X117650000Y-100330000D03*
%TO.P,J1,15,P15*%
%TO.N,unconnected-(J1-Pad15)*%
X114880000Y-100330000D03*
%TD*%
D11*
%TO.P,R3,1*%
%TO.N,/~{TX}*%
X114935000Y-104052500D03*
%TO.P,R3,2*%
%TO.N,+5V*%
X114935000Y-106052500D03*
%TD*%
D12*
%TO.P,Q2,1,B*%
%TO.N,/~{TX}*%
X128585000Y-106077500D03*
%TO.P,Q2,2,E*%
%TO.N,GND*%
X126685000Y-106077500D03*
%TO.P,Q2,3,C*%
%TO.N,/Out'*%
X127635000Y-104202500D03*
%TD*%
%TO.P,Q1,1,B*%
%TO.N,/TX'*%
X119695000Y-106077500D03*
%TO.P,Q1,2,E*%
%TO.N,GND*%
X117795000Y-106077500D03*
%TO.P,Q1,3,C*%
%TO.N,/~{TX}*%
X118745000Y-104202500D03*
%TD*%
D13*
%TO.P,R4,1*%
%TO.N,/Out-*%
X131445000Y-106052500D03*
%TO.P,R4,2*%
%TO.N,/Out'*%
X131445000Y-104052500D03*
%TD*%
%TO.P,R2,1*%
%TO.N,/TX'*%
X123190000Y-106052500D03*
%TO.P,R2,2*%
%TO.N,/TX*%
X123190000Y-104052500D03*
%TD*%
D14*
%TO.N,GND*%
X121285000Y-102870000D03*
X125095000Y-102870000D03*
X121285000Y-107035600D03*
X116586000Y-106172000D03*
X125095000Y-107950000D03*
X129921000Y-105054400D03*
%TO.N,+5V*%
X116586000Y-104876600D03*
X125095000Y-106045000D03*
%TO.N,/Out-*%
X129540000Y-107950000D03*
%TD*%
D15*
%TO.N,+5V*%
X123190000Y-107950000D02*
X116920000Y-107950000D01*
X116920000Y-107950000D02*
X114935000Y-105965000D01*
X116023400Y-104876600D02*
X116586000Y-104876600D01*
X114935000Y-105965000D02*
X116023400Y-104876600D01*
X125095000Y-106045000D02*
X123190000Y-107950000D01*
%TO.N,/Out-*%
X129547500Y-107950000D02*
X131445000Y-106052500D01*
X129540000Y-107950000D02*
X129547500Y-107950000D01*
%TO.N,/TX*%
X123190000Y-100330000D02*
X123190000Y-104220000D01*
%TO.N,/~{TX}*%
X119380000Y-104140000D02*
X120255000Y-105015000D01*
X128156751Y-106140000D02*
X128585000Y-106140000D01*
X114935000Y-104140000D02*
X119380000Y-104140000D01*
X127031751Y-105015000D02*
X128156751Y-106140000D01*
X120255000Y-105015000D02*
X127031751Y-105015000D01*
%TO.N,/TX'*%
X119695000Y-106140000D02*
X123095000Y-106140000D01*
X123095000Y-106140000D02*
X123190000Y-106045000D01*
%TO.N,/Out'*%
X127635000Y-104140000D02*
X131445000Y-104140000D01*
%TD*%
%TA.AperFunction,Conductor*%
%TO.N,GND*%
G36*
X113593488Y-98750302D02*
G01*
X113639981Y-98803958D01*
X113651367Y-98856300D01*
X113651367Y-102115358D01*
X113652663Y-102126252D01*
X113653352Y-102132040D01*
X113654534Y-102141978D01*
X113700703Y-102245919D01*
X113740853Y-102285998D01*
X113772962Y-102318052D01*
X113772964Y-102318053D01*
X113781195Y-102326270D01*
X113885216Y-102372258D01*
X113911309Y-102375300D01*
X115848691Y-102375300D01*
X115859585Y-102374004D01*
X115865926Y-102373250D01*
X115865929Y-102373249D01*
X115875311Y-102372133D01*
X115979252Y-102325964D01*
X116019331Y-102285814D01*
X116051385Y-102253705D01*
X116051386Y-102253703D01*
X116059603Y-102245472D01*
X116105591Y-102141451D01*
X116108633Y-102115358D01*
X116108633Y-98856300D01*
X116128635Y-98788179D01*
X116182291Y-98741686D01*
X116234633Y-98730300D01*
X116295367Y-98730300D01*
X116363488Y-98750302D01*
X116409981Y-98803958D01*
X116421367Y-98856300D01*
X116421367Y-102115358D01*
X116422663Y-102126252D01*
X116423352Y-102132040D01*
X116424534Y-102141978D01*
X116470703Y-102245919D01*
X116510853Y-102285998D01*
X116542962Y-102318052D01*
X116542964Y-102318053D01*
X116551195Y-102326270D01*
X116655216Y-102372258D01*
X116681309Y-102375300D01*
X118618691Y-102375300D01*
X118629585Y-102374004D01*
X118635926Y-102373250D01*
X118635929Y-102373249D01*
X118645311Y-102372133D01*
X118749252Y-102325964D01*
X118789331Y-102285814D01*
X118821385Y-102253705D01*
X118821386Y-102253703D01*
X118829603Y-102245472D01*
X118875591Y-102141451D01*
X118878633Y-102115358D01*
X118878633Y-98856300D01*
X118898635Y-98788179D01*
X118952291Y-98741686D01*
X119004633Y-98730300D01*
X119065367Y-98730300D01*
X119133488Y-98750302D01*
X119179981Y-98803958D01*
X119191367Y-98856300D01*
X119191367Y-102115358D01*
X119192663Y-102126252D01*
X119193352Y-102132040D01*
X119194534Y-102141978D01*
X119240703Y-102245919D01*
X119280853Y-102285998D01*
X119312962Y-102318052D01*
X119312964Y-102318053D01*
X119321195Y-102326270D01*
X119425216Y-102372258D01*
X119451309Y-102375300D01*
X121388691Y-102375300D01*
X121399585Y-102374004D01*
X121405926Y-102373250D01*
X121405929Y-102373249D01*
X121415311Y-102372133D01*
X121519252Y-102325964D01*
X121559331Y-102285814D01*
X121591385Y-102253705D01*
X121591386Y-102253703D01*
X121599603Y-102245472D01*
X121645591Y-102141451D01*
X121648633Y-102115358D01*
X121648633Y-98856300D01*
X121668635Y-98788179D01*
X121722291Y-98741686D01*
X121774633Y-98730300D01*
X121835367Y-98730300D01*
X121903488Y-98750302D01*
X121949981Y-98803958D01*
X121961367Y-98856300D01*
X121961367Y-102115358D01*
X121962663Y-102126252D01*
X121963352Y-102132040D01*
X121964534Y-102141978D01*
X122010703Y-102245919D01*
X122050853Y-102285998D01*
X122082962Y-102318052D01*
X122082964Y-102318053D01*
X122091195Y-102326270D01*
X122195216Y-102372258D01*
X122221309Y-102375300D01*
X122633700Y-102375300D01*
X122701821Y-102395302D01*
X122748314Y-102448958D01*
X122759700Y-102501300D01*
X122759700Y-103027924D01*
X122739698Y-103096045D01*
X122686042Y-103142538D01*
X122648839Y-103153011D01*
X122606297Y-103158159D01*
X122598769Y-103161139D01*
X122598767Y-103161140D01*
X122525936Y-103189976D01*
X122464838Y-103214166D01*
X122343652Y-103306152D01*
X122251666Y-103427338D01*
X122248502Y-103435330D01*
X122200074Y-103557647D01*
X122195659Y-103568797D01*
X122184700Y-103659356D01*
X122184700Y-104445644D01*
X122185156Y-104449409D01*
X122185259Y-104451119D01*
X122169392Y-104520319D01*
X122118631Y-104569957D01*
X122059487Y-104584700D01*
X120485426Y-104584700D01*
X120417305Y-104564698D01*
X120396331Y-104547795D01*
X119707617Y-103859081D01*
X119697762Y-103847992D01*
X119683719Y-103830179D01*
X119677888Y-103822782D01*
X119631803Y-103790930D01*
X119628630Y-103788662D01*
X119591203Y-103761018D01*
X119583624Y-103755420D01*
X119577117Y-103753135D01*
X119571444Y-103749214D01*
X119518100Y-103732344D01*
X119514343Y-103731090D01*
X119470433Y-103715670D01*
X119470429Y-103715669D01*
X119461541Y-103712548D01*
X119454648Y-103712277D01*
X119449862Y-103710764D01*
X119448051Y-103710190D01*
X119448189Y-103709754D01*
X119389164Y-103679173D01*
X119353791Y-103617616D01*
X119350299Y-103588159D01*
X119350299Y-103560596D01*
X119347287Y-103528722D01*
X119301924Y-103399545D01*
X119296332Y-103391975D01*
X119296331Y-103391972D01*
X119226174Y-103296989D01*
X119220582Y-103289418D01*
X119125738Y-103219364D01*
X119118028Y-103213669D01*
X119118025Y-103213668D01*
X119110455Y-103208076D01*
X118981278Y-103162713D01*
X118973632Y-103161990D01*
X118973631Y-103161990D01*
X118967909Y-103161449D01*
X118949405Y-103159700D01*
X118745104Y-103159700D01*
X118540596Y-103159701D01*
X118537646Y-103159980D01*
X118537641Y-103159980D01*
X118527054Y-103160981D01*
X118508722Y-103162713D01*
X118501481Y-103165256D01*
X118501480Y-103165256D01*
X118470059Y-103176290D01*
X118379545Y-103208076D01*
X118371975Y-103213668D01*
X118371972Y-103213669D01*
X118364262Y-103219364D01*
X118269418Y-103289418D01*
X118263826Y-103296989D01*
X118193669Y-103391972D01*
X118193668Y-103391975D01*
X118188076Y-103399545D01*
X118142713Y-103528722D01*
X118139700Y-103560595D01*
X118139700Y-103583700D01*
X118119698Y-103651821D01*
X118066042Y-103698314D01*
X118013700Y-103709700D01*
X116058063Y-103709700D01*
X115989942Y-103689698D01*
X115943449Y-103636042D01*
X115932977Y-103598843D01*
X115929341Y-103568797D01*
X115924927Y-103557647D01*
X115876498Y-103435330D01*
X115873334Y-103427338D01*
X115781348Y-103306152D01*
X115660162Y-103214166D01*
X115599064Y-103189976D01*
X115526233Y-103161140D01*
X115526231Y-103161139D01*
X115518703Y-103158159D01*
X115428144Y-103147200D01*
X114441856Y-103147200D01*
X114351297Y-103158159D01*
X114343769Y-103161139D01*
X114343767Y-103161140D01*
X114270936Y-103189976D01*
X114209838Y-103214166D01*
X114088652Y-103306152D01*
X113996666Y-103427338D01*
X113993502Y-103435330D01*
X113945074Y-103557647D01*
X113940659Y-103568797D01*
X113929700Y-103659356D01*
X113929700Y-104445644D01*
X113940659Y-104536203D01*
X113943639Y-104543731D01*
X113943640Y-104543733D01*
X113951941Y-104564698D01*
X113996666Y-104677662D01*
X114088652Y-104798848D01*
X114209838Y-104890834D01*
X114322269Y-104935348D01*
X114378243Y-104979022D01*
X114401720Y-105046025D01*
X114385245Y-105115084D01*
X114334049Y-105164272D01*
X114322271Y-105169651D01*
X114209838Y-105214166D01*
X114088652Y-105306152D01*
X113996666Y-105427338D01*
X113940659Y-105568797D01*
X113929700Y-105659356D01*
X113929700Y-106445644D01*
X113940659Y-106536203D01*
X113996666Y-106677662D01*
X114001864Y-106684510D01*
X114057974Y-106758431D01*
X114088652Y-106798848D01*
X114209838Y-106890834D01*
X114270936Y-106915024D01*
X114343767Y-106943860D01*
X114343769Y-106943861D01*
X114351297Y-106946841D01*
X114441856Y-106957800D01*
X115267074Y-106957800D01*
X115335195Y-106977802D01*
X115356169Y-106994705D01*
X116592383Y-108230919D01*
X116602238Y-108242008D01*
X116622112Y-108267218D01*
X116668197Y-108299070D01*
X116671365Y-108301334D01*
X116716376Y-108334580D01*
X116722883Y-108336865D01*
X116728556Y-108340786D01*
X116746830Y-108346565D01*
X116781900Y-108357656D01*
X116785657Y-108358910D01*
X116829567Y-108374330D01*
X116829571Y-108374331D01*
X116838459Y-108377452D01*
X116845352Y-108377723D01*
X116851926Y-108379802D01*
X116858253Y-108380300D01*
X116908467Y-108380300D01*
X116913414Y-108380397D01*
X116967752Y-108382532D01*
X116974605Y-108380715D01*
X116982145Y-108380300D01*
X123156982Y-108380300D01*
X123171790Y-108381173D01*
X123203668Y-108384946D01*
X123212932Y-108383254D01*
X123212933Y-108383254D01*
X123258733Y-108374889D01*
X123262639Y-108374239D01*
X123308644Y-108367323D01*
X123308645Y-108367323D01*
X123317955Y-108365923D01*
X123324171Y-108362938D01*
X123330956Y-108361699D01*
X123380622Y-108335899D01*
X123384162Y-108334130D01*
X123426104Y-108313990D01*
X123426105Y-108313989D01*
X123434596Y-108309912D01*
X123439662Y-108305229D01*
X123445780Y-108302051D01*
X123450606Y-108297930D01*
X123486108Y-108262428D01*
X123489675Y-108258998D01*
X123492676Y-108256224D01*
X123529612Y-108222081D01*
X123533175Y-108215948D01*
X123538213Y-108210323D01*
X124961886Y-106786650D01*
X125024198Y-106752624D01*
X125052960Y-106749761D01*
X125055298Y-106749798D01*
X125161666Y-106751469D01*
X125161669Y-106751469D01*
X125169265Y-106751588D01*
X125176669Y-106749892D01*
X125176671Y-106749892D01*
X125238992Y-106735619D01*
X125322996Y-106716379D01*
X126080200Y-106716379D01*
X126080479Y-106722290D01*
X126082487Y-106743537D01*
X126085755Y-106758431D01*
X126125403Y-106871333D01*
X126134117Y-106887792D01*
X126204183Y-106982654D01*
X126217346Y-106995817D01*
X126312209Y-107065883D01*
X126328665Y-107074596D01*
X126413908Y-107104532D01*
X126427990Y-107105266D01*
X126431000Y-107099492D01*
X126431000Y-106349615D01*
X126426525Y-106334376D01*
X126425135Y-106333171D01*
X126417452Y-106331500D01*
X126098315Y-106331500D01*
X126083076Y-106335975D01*
X126081871Y-106337365D01*
X126080200Y-106345048D01*
X126080200Y-106716379D01*
X125322996Y-106716379D01*
X125335667Y-106713477D01*
X125488174Y-106636774D01*
X125493945Y-106631845D01*
X125493948Y-106631843D01*
X125612210Y-106530837D01*
X125612211Y-106530836D01*
X125617982Y-106525907D01*
X125717598Y-106387276D01*
X125740020Y-106331500D01*
X125778436Y-106235939D01*
X125778437Y-106235937D01*
X125781271Y-106228886D01*
X125794486Y-106136033D01*
X125804743Y-106063962D01*
X125804743Y-106063961D01*
X125805324Y-106059879D01*
X125805480Y-106045000D01*
X125784971Y-105875527D01*
X125756278Y-105799592D01*
X125727315Y-105722942D01*
X125727314Y-105722940D01*
X125724630Y-105715837D01*
X125683224Y-105655591D01*
X125674342Y-105642667D01*
X125652242Y-105575197D01*
X125670128Y-105506491D01*
X125722320Y-105458360D01*
X125778182Y-105445300D01*
X125954200Y-105445300D01*
X126022321Y-105465302D01*
X126068814Y-105518958D01*
X126080200Y-105571300D01*
X126080200Y-105805385D01*
X126084675Y-105820624D01*
X126086065Y-105821829D01*
X126093748Y-105823500D01*
X126813000Y-105823500D01*
X126881121Y-105843502D01*
X126927614Y-105897158D01*
X126939000Y-105949500D01*
X126939000Y-107092419D01*
X126942973Y-107105950D01*
X126949416Y-107106876D01*
X127041335Y-107074596D01*
X127057791Y-107065883D01*
X127152654Y-106995817D01*
X127165817Y-106982654D01*
X127235883Y-106887792D01*
X127244597Y-106871333D01*
X127284245Y-106758431D01*
X127287513Y-106743537D01*
X127289521Y-106722290D01*
X127289800Y-106716379D01*
X127289800Y-106185775D01*
X127309802Y-106117654D01*
X127363458Y-106071161D01*
X127433732Y-106061057D01*
X127498312Y-106090551D01*
X127504895Y-106096680D01*
X127829134Y-106420919D01*
X127838989Y-106432008D01*
X127858863Y-106457218D01*
X127904948Y-106489070D01*
X127908098Y-106491321D01*
X127928562Y-106506436D01*
X127971472Y-106562998D01*
X127979701Y-106607786D01*
X127979701Y-106719404D01*
X127982713Y-106751278D01*
X128028076Y-106880455D01*
X128033668Y-106888025D01*
X128033669Y-106888028D01*
X128087331Y-106960679D01*
X128109418Y-106990582D01*
X128116989Y-106996174D01*
X128211972Y-107066331D01*
X128211975Y-107066332D01*
X128219545Y-107071924D01*
X128348722Y-107117287D01*
X128356368Y-107118010D01*
X128356369Y-107118010D01*
X128362091Y-107118551D01*
X128380595Y-107120300D01*
X128584896Y-107120300D01*
X128789404Y-107120299D01*
X128792354Y-107120020D01*
X128792359Y-107120020D01*
X128802946Y-107119019D01*
X128821278Y-107117287D01*
X128828526Y-107114742D01*
X128865573Y-107101732D01*
X128950455Y-107071924D01*
X128958025Y-107066332D01*
X128958028Y-107066331D01*
X129053011Y-106996174D01*
X129060582Y-106990582D01*
X129082669Y-106960679D01*
X129136331Y-106888028D01*
X129136332Y-106888025D01*
X129141924Y-106880455D01*
X129187287Y-106751278D01*
X129190300Y-106719405D01*
X129190299Y-105435596D01*
X129187287Y-105403722D01*
X129141924Y-105274545D01*
X129136332Y-105266975D01*
X129136331Y-105266972D01*
X129066174Y-105171989D01*
X129060582Y-105164418D01*
X129008539Y-105125978D01*
X128958028Y-105088669D01*
X128958025Y-105088668D01*
X128950455Y-105083076D01*
X128821278Y-105037713D01*
X128813632Y-105036990D01*
X128813631Y-105036990D01*
X128807909Y-105036449D01*
X128789405Y-105034700D01*
X128585104Y-105034700D01*
X128380596Y-105034701D01*
X128369724Y-105035728D01*
X128300026Y-105022227D01*
X128248689Y-104973185D01*
X128232016Y-104904174D01*
X128234776Y-104883428D01*
X128237287Y-104876278D01*
X128240300Y-104844405D01*
X128240300Y-104696300D01*
X128260302Y-104628179D01*
X128313958Y-104581686D01*
X128366300Y-104570300D01*
X130378529Y-104570300D01*
X130446650Y-104590302D01*
X130495681Y-104649915D01*
X130506666Y-104677662D01*
X130598652Y-104798848D01*
X130719838Y-104890834D01*
X130832269Y-104935348D01*
X130888243Y-104979022D01*
X130911720Y-105046025D01*
X130895245Y-105115084D01*
X130844049Y-105164272D01*
X130832271Y-105169651D01*
X130719838Y-105214166D01*
X130598652Y-105306152D01*
X130506666Y-105427338D01*
X130450659Y-105568797D01*
X130439700Y-105659356D01*
X130439700Y-106397074D01*
X130419698Y-106465195D01*
X130402795Y-106486169D01*
X129680943Y-107208021D01*
X129618631Y-107242047D01*
X129591189Y-107244924D01*
X129458339Y-107244229D01*
X129450960Y-107246001D01*
X129450956Y-107246001D01*
X129299726Y-107282308D01*
X129299722Y-107282309D01*
X129292347Y-107284080D01*
X129140651Y-107362376D01*
X129012010Y-107474596D01*
X128913852Y-107614262D01*
X128911093Y-107621337D01*
X128911092Y-107621340D01*
X128906128Y-107634074D01*
X128851841Y-107773311D01*
X128850849Y-107780844D01*
X128850849Y-107780845D01*
X128831657Y-107926627D01*
X128829559Y-107942560D01*
X128830393Y-107950110D01*
X128846959Y-108100162D01*
X128848292Y-108112239D01*
X128850901Y-108119370D01*
X128850902Y-108119372D01*
X128891723Y-108230919D01*
X128906958Y-108272551D01*
X129002170Y-108414242D01*
X129007782Y-108419349D01*
X129007785Y-108419352D01*
X129122811Y-108524018D01*
X129122815Y-108524021D01*
X129128432Y-108529132D01*
X129135109Y-108532757D01*
X129135110Y-108532758D01*
X129158000Y-108545186D01*
X129278455Y-108610588D01*
X129443577Y-108653907D01*
X129530592Y-108655274D01*
X129606666Y-108656469D01*
X129606669Y-108656469D01*
X129614265Y-108656588D01*
X129621669Y-108654892D01*
X129621671Y-108654892D01*
X129683992Y-108640619D01*
X129780667Y-108618477D01*
X129933174Y-108541774D01*
X129938945Y-108536845D01*
X129938948Y-108536843D01*
X130057210Y-108435837D01*
X130057211Y-108435836D01*
X130062982Y-108430907D01*
X130162598Y-108292276D01*
X130167993Y-108278855D01*
X130223436Y-108140939D01*
X130223437Y-108140937D01*
X130226271Y-108133886D01*
X130250324Y-107964879D01*
X130250480Y-107950000D01*
X130247651Y-107926625D01*
X130259323Y-107856596D01*
X130283643Y-107822393D01*
X131111331Y-106994705D01*
X131173643Y-106960679D01*
X131200426Y-106957800D01*
X131938144Y-106957800D01*
X132028703Y-106946841D01*
X132036231Y-106943861D01*
X132036233Y-106943860D01*
X132109064Y-106915024D01*
X132170162Y-106890834D01*
X132291348Y-106798848D01*
X132322027Y-106758431D01*
X132378136Y-106684510D01*
X132383334Y-106677662D01*
X132439341Y-106536203D01*
X132450300Y-106445644D01*
X132450300Y-105659356D01*
X132439341Y-105568797D01*
X132383334Y-105427338D01*
X132291348Y-105306152D01*
X132170162Y-105214166D01*
X132057731Y-105169652D01*
X132001757Y-105125978D01*
X131978280Y-105058975D01*
X131994755Y-104989916D01*
X132045951Y-104940728D01*
X132057731Y-104935348D01*
X132170162Y-104890834D01*
X132291348Y-104798848D01*
X132383334Y-104677662D01*
X132428059Y-104564698D01*
X132436360Y-104543733D01*
X132436361Y-104543731D01*
X132439341Y-104536203D01*
X132450300Y-104445644D01*
X132450300Y-103659356D01*
X132439341Y-103568797D01*
X132434927Y-103557647D01*
X132386498Y-103435330D01*
X132383334Y-103427338D01*
X132291348Y-103306152D01*
X132170162Y-103214166D01*
X132109064Y-103189976D01*
X132036233Y-103161140D01*
X132036231Y-103161139D01*
X132028703Y-103158159D01*
X131938144Y-103147200D01*
X130951856Y-103147200D01*
X130861297Y-103158159D01*
X130853769Y-103161139D01*
X130853767Y-103161140D01*
X130780936Y-103189976D01*
X130719838Y-103214166D01*
X130598652Y-103306152D01*
X130506666Y-103427338D01*
X130503502Y-103435330D01*
X130455074Y-103557647D01*
X130450659Y-103568797D01*
X130447023Y-103598840D01*
X130418984Y-103664061D01*
X130360132Y-103703771D01*
X130321937Y-103709700D01*
X128366299Y-103709700D01*
X128298178Y-103689698D01*
X128251685Y-103636042D01*
X128240299Y-103583700D01*
X128240299Y-103560596D01*
X128237287Y-103528722D01*
X128191924Y-103399545D01*
X128186332Y-103391975D01*
X128186331Y-103391972D01*
X128116174Y-103296989D01*
X128110582Y-103289418D01*
X128015738Y-103219364D01*
X128008028Y-103213669D01*
X128008025Y-103213668D01*
X128000455Y-103208076D01*
X127871278Y-103162713D01*
X127863632Y-103161990D01*
X127863631Y-103161990D01*
X127857909Y-103161449D01*
X127839405Y-103159700D01*
X127635104Y-103159700D01*
X127430596Y-103159701D01*
X127427646Y-103159980D01*
X127427641Y-103159980D01*
X127417054Y-103160981D01*
X127398722Y-103162713D01*
X127391481Y-103165256D01*
X127391480Y-103165256D01*
X127360059Y-103176290D01*
X127269545Y-103208076D01*
X127261975Y-103213668D01*
X127261972Y-103213669D01*
X127254262Y-103219364D01*
X127159418Y-103289418D01*
X127153826Y-103296989D01*
X127083669Y-103391972D01*
X127083668Y-103391975D01*
X127078076Y-103399545D01*
X127032713Y-103528722D01*
X127029700Y-103560595D01*
X127029700Y-103563558D01*
X127029701Y-104458700D01*
X127009699Y-104526821D01*
X126956043Y-104573314D01*
X126903701Y-104584700D01*
X124320513Y-104584700D01*
X124252392Y-104564698D01*
X124205899Y-104511042D01*
X124194741Y-104451119D01*
X124194844Y-104449409D01*
X124195300Y-104445644D01*
X124195300Y-103659356D01*
X124184341Y-103568797D01*
X124179927Y-103557647D01*
X124131498Y-103435330D01*
X124128334Y-103427338D01*
X124036348Y-103306152D01*
X123915162Y-103214166D01*
X123854064Y-103189976D01*
X123781233Y-103161140D01*
X123781231Y-103161139D01*
X123773703Y-103158159D01*
X123731162Y-103153011D01*
X123665938Y-103124970D01*
X123626228Y-103066118D01*
X123620300Y-103027924D01*
X123620300Y-102501300D01*
X123640302Y-102433179D01*
X123693958Y-102386686D01*
X123746300Y-102375300D01*
X124158691Y-102375300D01*
X124169585Y-102374004D01*
X124175926Y-102373250D01*
X124175929Y-102373249D01*
X124185311Y-102372133D01*
X124289252Y-102325964D01*
X124329331Y-102285814D01*
X124361385Y-102253705D01*
X124361386Y-102253703D01*
X124369603Y-102245472D01*
X124415591Y-102141451D01*
X124418633Y-102115358D01*
X124418633Y-98856300D01*
X124438635Y-98788179D01*
X124492291Y-98741686D01*
X124544633Y-98730300D01*
X124605367Y-98730300D01*
X124673488Y-98750302D01*
X124719981Y-98803958D01*
X124731367Y-98856300D01*
X124731367Y-102115358D01*
X124732663Y-102126252D01*
X124733352Y-102132040D01*
X124734534Y-102141978D01*
X124780703Y-102245919D01*
X124820853Y-102285998D01*
X124852962Y-102318052D01*
X124852964Y-102318053D01*
X124861195Y-102326270D01*
X124965216Y-102372258D01*
X124991309Y-102375300D01*
X126928691Y-102375300D01*
X126939585Y-102374004D01*
X126945926Y-102373250D01*
X126945929Y-102373249D01*
X126955311Y-102372133D01*
X127059252Y-102325964D01*
X127099331Y-102285814D01*
X127131385Y-102253705D01*
X127131386Y-102253703D01*
X127139603Y-102245472D01*
X127185591Y-102141451D01*
X127188633Y-102115358D01*
X127188633Y-98856300D01*
X127208635Y-98788179D01*
X127262291Y-98741686D01*
X127314633Y-98730300D01*
X127375367Y-98730300D01*
X127443488Y-98750302D01*
X127489981Y-98803958D01*
X127501367Y-98856300D01*
X127501367Y-102115358D01*
X127502663Y-102126252D01*
X127503352Y-102132040D01*
X127504534Y-102141978D01*
X127550703Y-102245919D01*
X127590853Y-102285998D01*
X127622962Y-102318052D01*
X127622964Y-102318053D01*
X127631195Y-102326270D01*
X127735216Y-102372258D01*
X127761309Y-102375300D01*
X129698691Y-102375300D01*
X129709585Y-102374004D01*
X129715926Y-102373250D01*
X129715929Y-102373249D01*
X129725311Y-102372133D01*
X129829252Y-102325964D01*
X129869331Y-102285814D01*
X129901385Y-102253705D01*
X129901386Y-102253703D01*
X129909603Y-102245472D01*
X129955591Y-102141451D01*
X129958633Y-102115358D01*
X129958633Y-98856300D01*
X129978635Y-98788179D01*
X130032291Y-98741686D01*
X130084633Y-98730300D01*
X130145367Y-98730300D01*
X130213488Y-98750302D01*
X130259981Y-98803958D01*
X130271367Y-98856300D01*
X130271367Y-102115358D01*
X130272663Y-102126252D01*
X130273352Y-102132040D01*
X130274534Y-102141978D01*
X130320703Y-102245919D01*
X130360853Y-102285998D01*
X130392962Y-102318052D01*
X130392964Y-102318053D01*
X130401195Y-102326270D01*
X130505216Y-102372258D01*
X130531309Y-102375300D01*
X132468691Y-102375300D01*
X132479585Y-102374004D01*
X132485926Y-102373250D01*
X132485929Y-102373249D01*
X132495311Y-102372133D01*
X132599252Y-102325964D01*
X132639331Y-102285814D01*
X132671385Y-102253705D01*
X132671386Y-102253703D01*
X132679603Y-102245472D01*
X132725591Y-102141451D01*
X132728633Y-102115358D01*
X132728633Y-98856300D01*
X132748635Y-98788179D01*
X132802291Y-98741686D01*
X132854633Y-98730300D01*
X133553700Y-98730300D01*
X133621821Y-98750302D01*
X133668314Y-98803958D01*
X133679700Y-98856300D01*
X133679700Y-107277264D01*
X133677786Y-107299142D01*
X133674990Y-107315000D01*
X133676904Y-107325855D01*
X133676904Y-107336880D01*
X133676865Y-107336880D01*
X133677599Y-107349734D01*
X133663867Y-107576755D01*
X133662033Y-107591859D01*
X133616138Y-107842301D01*
X133612497Y-107857074D01*
X133585859Y-107942560D01*
X133536748Y-108100162D01*
X133531354Y-108114385D01*
X133430956Y-108337460D01*
X133426858Y-108346565D01*
X133419788Y-108360037D01*
X133304059Y-108551475D01*
X133288066Y-108577930D01*
X133279424Y-108590451D01*
X133260140Y-108615065D01*
X133122393Y-108790886D01*
X133112303Y-108802274D01*
X132932274Y-108982303D01*
X132920886Y-108992393D01*
X132720452Y-109149423D01*
X132707930Y-109158066D01*
X132490038Y-109289787D01*
X132476567Y-109296857D01*
X132244385Y-109401354D01*
X132230167Y-109406746D01*
X131998720Y-109478868D01*
X131987074Y-109482497D01*
X131972301Y-109486138D01*
X131721859Y-109532033D01*
X131706755Y-109533867D01*
X131479734Y-109547599D01*
X131466880Y-109546865D01*
X131466880Y-109546904D01*
X131455855Y-109546904D01*
X131445000Y-109544990D01*
X131429142Y-109547786D01*
X131407264Y-109549700D01*
X114972736Y-109549700D01*
X114950858Y-109547786D01*
X114935000Y-109544990D01*
X114924145Y-109546904D01*
X114913120Y-109546904D01*
X114913120Y-109546865D01*
X114900266Y-109547599D01*
X114673245Y-109533867D01*
X114658141Y-109532033D01*
X114407699Y-109486138D01*
X114392926Y-109482497D01*
X114381280Y-109478868D01*
X114149833Y-109406746D01*
X114135615Y-109401354D01*
X113903433Y-109296857D01*
X113889962Y-109289787D01*
X113672070Y-109158066D01*
X113659548Y-109149423D01*
X113459114Y-108992393D01*
X113447726Y-108982303D01*
X113267697Y-108802274D01*
X113257607Y-108790886D01*
X113119860Y-108615065D01*
X113100576Y-108590451D01*
X113091934Y-108577930D01*
X113075941Y-108551475D01*
X112960212Y-108360037D01*
X112953142Y-108346565D01*
X112949044Y-108337460D01*
X112848646Y-108114385D01*
X112843252Y-108100162D01*
X112794142Y-107942560D01*
X112767503Y-107857074D01*
X112763862Y-107842301D01*
X112717967Y-107591859D01*
X112716133Y-107576755D01*
X112702401Y-107349734D01*
X112703135Y-107336880D01*
X112703096Y-107336880D01*
X112703096Y-107325855D01*
X112705010Y-107315000D01*
X112702214Y-107299142D01*
X112700300Y-107277264D01*
X112700300Y-98856300D01*
X112720302Y-98788179D01*
X112773958Y-98741686D01*
X112826300Y-98730300D01*
X113525367Y-98730300D01*
X113593488Y-98750302D01*
G37*
%TD.AperFunction*%
%TA.AperFunction,Conductor*%
G36*
X118081822Y-104590302D02*
G01*
X118128315Y-104643958D01*
X118139701Y-104696300D01*
X118139701Y-104844404D01*
X118142713Y-104876278D01*
X118145256Y-104883520D01*
X118146903Y-104891027D01*
X118144745Y-104891500D01*
X118147867Y-104951318D01*
X118112648Y-105012964D01*
X118081240Y-105029337D01*
X118082355Y-105031288D01*
X118052833Y-105048155D01*
X118049000Y-105055508D01*
X118049000Y-105805385D01*
X118053475Y-105820624D01*
X118054865Y-105821829D01*
X118062548Y-105823500D01*
X118381685Y-105823500D01*
X118396924Y-105819025D01*
X118398129Y-105817635D01*
X118399800Y-105809952D01*
X118399800Y-105438621D01*
X118399521Y-105432710D01*
X118397512Y-105411458D01*
X118394267Y-105396665D01*
X118399207Y-105325840D01*
X118441653Y-105268929D01*
X118508129Y-105244001D01*
X118529194Y-105244223D01*
X118537637Y-105245021D01*
X118537650Y-105245022D01*
X118540595Y-105245300D01*
X118744896Y-105245300D01*
X118949404Y-105245299D01*
X118960276Y-105244272D01*
X119029974Y-105257773D01*
X119081311Y-105306815D01*
X119097984Y-105375826D01*
X119095224Y-105396572D01*
X119092713Y-105403722D01*
X119089700Y-105435595D01*
X119089701Y-106719404D01*
X119092713Y-106751278D01*
X119138076Y-106880455D01*
X119143668Y-106888025D01*
X119143669Y-106888028D01*
X119197331Y-106960679D01*
X119219418Y-106990582D01*
X119226989Y-106996174D01*
X119321972Y-107066331D01*
X119321975Y-107066332D01*
X119329545Y-107071924D01*
X119458722Y-107117287D01*
X119466368Y-107118010D01*
X119466369Y-107118010D01*
X119472091Y-107118551D01*
X119490595Y-107120300D01*
X119694896Y-107120300D01*
X119899404Y-107120299D01*
X119902354Y-107120020D01*
X119902359Y-107120020D01*
X119912946Y-107119019D01*
X119931278Y-107117287D01*
X119938526Y-107114742D01*
X119975573Y-107101732D01*
X120060455Y-107071924D01*
X120068025Y-107066332D01*
X120068028Y-107066331D01*
X120163011Y-106996174D01*
X120170582Y-106990582D01*
X120192669Y-106960679D01*
X120246331Y-106888028D01*
X120246332Y-106888025D01*
X120251924Y-106880455D01*
X120297287Y-106751278D01*
X120300300Y-106719405D01*
X120300300Y-106696300D01*
X120320302Y-106628179D01*
X120373958Y-106581686D01*
X120426300Y-106570300D01*
X122123529Y-106570300D01*
X122191650Y-106590302D01*
X122240681Y-106649915D01*
X122251666Y-106677662D01*
X122256864Y-106684510D01*
X122312974Y-106758431D01*
X122343652Y-106798848D01*
X122464838Y-106890834D01*
X122525936Y-106915024D01*
X122598767Y-106943860D01*
X122598769Y-106943861D01*
X122606297Y-106946841D01*
X122696856Y-106957800D01*
X123269474Y-106957800D01*
X123337595Y-106977802D01*
X123384088Y-107031458D01*
X123394192Y-107101732D01*
X123364698Y-107166312D01*
X123358569Y-107172895D01*
X123048669Y-107482795D01*
X122986357Y-107516821D01*
X122959574Y-107519700D01*
X117150426Y-107519700D01*
X117082305Y-107499698D01*
X117061331Y-107482795D01*
X116294915Y-106716379D01*
X117190200Y-106716379D01*
X117190479Y-106722290D01*
X117192487Y-106743537D01*
X117195755Y-106758431D01*
X117235403Y-106871333D01*
X117244117Y-106887792D01*
X117314183Y-106982654D01*
X117327346Y-106995817D01*
X117422209Y-107065883D01*
X117438665Y-107074596D01*
X117523908Y-107104532D01*
X117537990Y-107105266D01*
X117541000Y-107099492D01*
X117541000Y-107092419D01*
X118049000Y-107092419D01*
X118052973Y-107105950D01*
X118059416Y-107106876D01*
X118151335Y-107074596D01*
X118167791Y-107065883D01*
X118262654Y-106995817D01*
X118275817Y-106982654D01*
X118345883Y-106887792D01*
X118354597Y-106871333D01*
X118394245Y-106758431D01*
X118397513Y-106743537D01*
X118399521Y-106722290D01*
X118399800Y-106716379D01*
X118399800Y-106349615D01*
X118395325Y-106334376D01*
X118393935Y-106333171D01*
X118386252Y-106331500D01*
X118067115Y-106331500D01*
X118051876Y-106335975D01*
X118050671Y-106337365D01*
X118049000Y-106345048D01*
X118049000Y-107092419D01*
X117541000Y-107092419D01*
X117541000Y-106349615D01*
X117536525Y-106334376D01*
X117535135Y-106333171D01*
X117527452Y-106331500D01*
X117208315Y-106331500D01*
X117193076Y-106335975D01*
X117191871Y-106337365D01*
X117190200Y-106345048D01*
X117190200Y-106716379D01*
X116294915Y-106716379D01*
X115977205Y-106398669D01*
X115943179Y-106336357D01*
X115940300Y-106309574D01*
X115940300Y-105659356D01*
X115939845Y-105655591D01*
X115937830Y-105638948D01*
X115949502Y-105568917D01*
X115973822Y-105534714D01*
X116029073Y-105479463D01*
X116091385Y-105445437D01*
X116162200Y-105450502D01*
X116178290Y-105457827D01*
X116218139Y-105479463D01*
X116324455Y-105537188D01*
X116489577Y-105580507D01*
X116576592Y-105581874D01*
X116652666Y-105583069D01*
X116652669Y-105583069D01*
X116660265Y-105583188D01*
X116667669Y-105581492D01*
X116667671Y-105581492D01*
X116755977Y-105561267D01*
X116826667Y-105545077D01*
X116979174Y-105468374D01*
X116984948Y-105463443D01*
X116991278Y-105459237D01*
X116992516Y-105461100D01*
X117047154Y-105436614D01*
X117117355Y-105447217D01*
X117170679Y-105494090D01*
X117190200Y-105561456D01*
X117190200Y-105805385D01*
X117194675Y-105820624D01*
X117196065Y-105821829D01*
X117203748Y-105823500D01*
X117522885Y-105823500D01*
X117538124Y-105819025D01*
X117539329Y-105817635D01*
X117541000Y-105809952D01*
X117541000Y-105062581D01*
X117537027Y-105049050D01*
X117530584Y-105048124D01*
X117456253Y-105074227D01*
X117385352Y-105077925D01*
X117323708Y-105042705D01*
X117290890Y-104979749D01*
X117289761Y-104937593D01*
X117296324Y-104891479D01*
X117296480Y-104876600D01*
X117295516Y-104868635D01*
X117276493Y-104711437D01*
X117288166Y-104641407D01*
X117335847Y-104588805D01*
X117401580Y-104570300D01*
X118013701Y-104570300D01*
X118081822Y-104590302D01*
G37*
%TD.AperFunction*%
%TD*%
M02*
